%TF.GenerationSoftware,KiCad,Pcbnew,8.0.6*%
%TF.CreationDate,2024-11-20T07:08:01-05:00*%
%TF.ProjectId,multiDOF,6d756c74-6944-44f4-962e-6b696361645f,rev?*%
%TF.SameCoordinates,Original*%
%TF.FileFunction,Copper,L1,Top*%
%TF.FilePolarity,Positive*%
%FSLAX46Y46*%
G04 Gerber Fmt 4.6, Leading zero omitted, Abs format (unit mm)*
G04 Created by KiCad (PCBNEW 8.0.6) date 2024-11-20 07:08:01*
%MOMM*%
%LPD*%
G01*
G04 APERTURE LIST*
G04 Aperture macros list*
%AMRoundRect*
0 Rectangle with rounded corners*
0 $1 Rounding radius*
0 $2 $3 $4 $5 $6 $7 $8 $9 X,Y pos of 4 corners*
0 Add a 4 corners polygon primitive as box body*
4,1,4,$2,$3,$4,$5,$6,$7,$8,$9,$2,$3,0*
0 Add four circle primitives for the rounded corners*
1,1,$1+$1,$2,$3*
1,1,$1+$1,$4,$5*
1,1,$1+$1,$6,$7*
1,1,$1+$1,$8,$9*
0 Add four rect primitives between the rounded corners*
20,1,$1+$1,$2,$3,$4,$5,0*
20,1,$1+$1,$4,$5,$6,$7,0*
20,1,$1+$1,$6,$7,$8,$9,0*
20,1,$1+$1,$8,$9,$2,$3,0*%
G04 Aperture macros list end*
%TA.AperFunction,ComponentPad*%
%ADD10R,3.000000X3.000000*%
%TD*%
%TA.AperFunction,ComponentPad*%
%ADD11C,3.000000*%
%TD*%
%TA.AperFunction,ComponentPad*%
%ADD12R,1.200000X1.200000*%
%TD*%
%TA.AperFunction,ComponentPad*%
%ADD13C,1.200000*%
%TD*%
%TA.AperFunction,ComponentPad*%
%ADD14R,1.350000X1.350000*%
%TD*%
%TA.AperFunction,ComponentPad*%
%ADD15O,1.350000X1.350000*%
%TD*%
%TA.AperFunction,ComponentPad*%
%ADD16RoundRect,0.250000X-0.350000X-0.625000X0.350000X-0.625000X0.350000X0.625000X-0.350000X0.625000X0*%
%TD*%
%TA.AperFunction,ComponentPad*%
%ADD17O,1.200000X1.750000*%
%TD*%
%TA.AperFunction,ComponentPad*%
%ADD18R,1.600000X1.600000*%
%TD*%
%TA.AperFunction,ComponentPad*%
%ADD19C,1.600000*%
%TD*%
%TA.AperFunction,ComponentPad*%
%ADD20R,1.300000X1.300000*%
%TD*%
%TA.AperFunction,ComponentPad*%
%ADD21C,1.300000*%
%TD*%
%TA.AperFunction,ComponentPad*%
%ADD22C,1.400000*%
%TD*%
%TA.AperFunction,ComponentPad*%
%ADD23O,1.400000X1.400000*%
%TD*%
%TA.AperFunction,ComponentPad*%
%ADD24C,2.800000*%
%TD*%
%TA.AperFunction,ComponentPad*%
%ADD25R,2.800000X2.800000*%
%TD*%
%TA.AperFunction,ComponentPad*%
%ADD26R,1.700000X1.700000*%
%TD*%
%TA.AperFunction,ComponentPad*%
%ADD27O,1.700000X1.700000*%
%TD*%
%TA.AperFunction,ComponentPad*%
%ADD28C,3.500000*%
%TD*%
%TA.AperFunction,ComponentPad*%
%ADD29O,1.600000X1.600000*%
%TD*%
%TA.AperFunction,ComponentPad*%
%ADD30R,1.800000X1.800000*%
%TD*%
%TA.AperFunction,ComponentPad*%
%ADD31C,1.800000*%
%TD*%
%TA.AperFunction,Conductor*%
%ADD32C,0.300000*%
%TD*%
%TA.AperFunction,Conductor*%
%ADD33C,1.000000*%
%TD*%
G04 APERTURE END LIST*
D10*
%TO.P,J1,1,Pin_1*%
%TO.N,Net-(J1-Pin_1)*%
X66000000Y-103000000D03*
D11*
%TO.P,J1,2,Pin_2*%
%TO.N,GND*%
X66000000Y-108000000D03*
%TD*%
D12*
%TO.P,C2,1*%
%TO.N,+10V*%
X81000000Y-108000000D03*
D13*
%TO.P,C2,2*%
%TO.N,GND*%
X83000000Y-108000000D03*
%TD*%
D14*
%TO.P,J14,1,Pin_1*%
%TO.N,Net-(J14-Pin_1)*%
X73000000Y-57000000D03*
D15*
%TO.P,J14,2,Pin_2*%
X73000000Y-59000000D03*
%TO.P,J14,3,Pin_3*%
X73000000Y-61000000D03*
%TO.P,J14,4,Pin_4*%
X73000000Y-63000000D03*
%TD*%
D16*
%TO.P,J2,1,Pin_1*%
%TO.N,Signal*%
X93000000Y-112000000D03*
D17*
%TO.P,J2,2,Pin_2*%
%TO.N,+10V*%
X95000000Y-112000000D03*
%TO.P,J2,3,Pin_3*%
%TO.N,GND*%
X97000000Y-112000000D03*
%TD*%
D18*
%TO.P,U1,1,GND*%
%TO.N,GND*%
X69280000Y-88000000D03*
D19*
%TO.P,U1,2,0_RX1_CRX2_CS1*%
%TO.N,unconnected-(U1-0_RX1_CRX2_CS1-Pad2)*%
X71820000Y-88000000D03*
%TO.P,U1,3,1_TX1_CTX2_MISO1*%
%TO.N,unconnected-(U1-1_TX1_CTX2_MISO1-Pad3)*%
X74360000Y-88000000D03*
%TO.P,U1,4,2_OUT2*%
%TO.N,DIR*%
X76900000Y-88000000D03*
%TO.P,U1,5,3_LRCLK2*%
%TO.N,STEP*%
X79440000Y-88000000D03*
%TO.P,U1,6,4_BCLK2*%
%TO.N,Net-(J11-Pin_2)*%
X81980000Y-88000000D03*
%TO.P,U1,7,5_IN2*%
%TO.N,Net-(J11-Pin_1)*%
X84520000Y-88000000D03*
%TO.P,U1,8,6_OUT1D*%
%TO.N,unconnected-(U1-6_OUT1D-Pad8)*%
X87060000Y-88000000D03*
%TO.P,U1,9,7_RX2_OUT1A*%
%TO.N,Signal*%
X89600000Y-88000000D03*
%TO.P,U1,10,8_TX2_IN1*%
X92140000Y-88000000D03*
%TO.P,U1,11,9_OUT1C*%
%TO.N,Net-(J8-Pin_14)*%
X94680000Y-88000000D03*
%TO.P,U1,12,10_CS_MQSR*%
%TO.N,Net-(J8-Pin_13)*%
X97220000Y-88000000D03*
%TO.P,U1,13,11_MOSI_CTX1*%
%TO.N,Net-(J8-Pin_12)*%
X99760000Y-88000000D03*
%TO.P,U1,14,12_MISO_MQSL*%
%TO.N,Net-(J8-Pin_11)*%
X102300000Y-88000000D03*
%TO.P,U1,15,3V3*%
%TO.N,Net-(J8-Pin_10)*%
X104840000Y-88000000D03*
%TO.P,U1,16,24_A10_TX6_SCL2*%
%TO.N,Net-(J8-Pin_9)*%
X107380000Y-88000000D03*
%TO.P,U1,17,25_A11_RX6_SDA2*%
%TO.N,Net-(J8-Pin_8)*%
X109920000Y-88000000D03*
%TO.P,U1,18,26_A12_MOSI1*%
%TO.N,Net-(J8-Pin_7)*%
X112460000Y-88000000D03*
%TO.P,U1,19,27_A13_SCK1*%
%TO.N,Net-(J8-Pin_6)*%
X115000000Y-88000000D03*
%TO.P,U1,20,28_RX7*%
%TO.N,Net-(J8-Pin_5)*%
X117540000Y-88000000D03*
%TO.P,U1,21,29_TX7*%
%TO.N,Net-(J8-Pin_4)*%
X120080000Y-88000000D03*
%TO.P,U1,22,30_CRX3*%
%TO.N,Net-(J8-Pin_3)*%
X122620000Y-88000000D03*
%TO.P,U1,23,31_CTX3*%
%TO.N,Net-(J8-Pin_2)*%
X125160000Y-88000000D03*
%TO.P,U1,24,32_OUT1B*%
%TO.N,Net-(J8-Pin_1)*%
X127700000Y-88000000D03*
%TO.P,U1,25,33_MCLK2*%
%TO.N,Net-(J12-Pin_21)*%
X127700000Y-72760000D03*
%TO.P,U1,26,34_RX8*%
%TO.N,Net-(J12-Pin_20)*%
X125160000Y-72760000D03*
%TO.P,U1,27,35_TX8*%
%TO.N,Net-(J12-Pin_19)*%
X122620000Y-72760000D03*
%TO.P,U1,28,36_CS*%
%TO.N,Net-(J12-Pin_18)*%
X120080000Y-72760000D03*
%TO.P,U1,29,37_CS*%
%TO.N,Net-(J12-Pin_17)*%
X117540000Y-72760000D03*
%TO.P,U1,30,38_CS1_IN1*%
%TO.N,Net-(J12-Pin_16)*%
X115000000Y-72760000D03*
%TO.P,U1,31,39_MISO1_OUT1A*%
%TO.N,Net-(J12-Pin_15)*%
X112460000Y-72760000D03*
%TO.P,U1,32,40_A16*%
%TO.N,Net-(J12-Pin_14)*%
X109920000Y-72760000D03*
%TO.P,U1,33,41_A17*%
%TO.N,Net-(J12-Pin_13)*%
X107380000Y-72760000D03*
%TO.P,U1,34,GND*%
%TO.N,Net-(J12-Pin_12)*%
X104840000Y-72760000D03*
%TO.P,U1,35,13_SCK_LED*%
%TO.N,Net-(J12-Pin_11)*%
X102300000Y-72760000D03*
%TO.P,U1,36,14_A0_TX3_SPDIF_OUT*%
%TO.N,Net-(J12-Pin_10)*%
X99760000Y-72760000D03*
%TO.P,U1,37,15_A1_RX3_SPDIF_IN*%
%TO.N,Net-(J12-Pin_9)*%
X97220000Y-72760000D03*
%TO.P,U1,38,16_A2_RX4_SCL1*%
%TO.N,Net-(J12-Pin_8)*%
X94680000Y-72760000D03*
%TO.P,U1,39,17_A3_TX4_SDA1*%
%TO.N,Net-(J12-Pin_7)*%
X92140000Y-72760000D03*
%TO.P,U1,40,18_A4_SDA*%
%TO.N,Net-(J12-Pin_6)*%
X89600000Y-72760000D03*
%TO.P,U1,41,19_A5_SCL*%
%TO.N,Net-(J12-Pin_5)*%
X87060000Y-72760000D03*
%TO.P,U1,42,20_A6_TX5_LRCLK1*%
%TO.N,Net-(J12-Pin_4)*%
X84520000Y-72760000D03*
%TO.P,U1,43,21_A7_RX5_BCLK1*%
%TO.N,Net-(J12-Pin_3)*%
X81980000Y-72760000D03*
%TO.P,U1,44,22_A8_CTX1*%
%TO.N,Net-(J12-Pin_2)*%
X79440000Y-72760000D03*
%TO.P,U1,45,23_A9_CRX1_MCLK1*%
%TO.N,Net-(J12-Pin_1)*%
X76900000Y-72760000D03*
%TO.P,U1,46,3V3*%
%TO.N,Net-(J15-Pin_1)*%
X74360000Y-72760000D03*
%TO.P,U1,47,GND*%
%TO.N,Net-(J14-Pin_1)*%
X71820000Y-72760000D03*
%TO.P,U1,48,VIN*%
%TO.N,Net-(J13-Pin_1)*%
X69280000Y-72760000D03*
%TO.P,U1,49,VUSB*%
%TO.N,Net-(A1-VDD)*%
X71820000Y-75300000D03*
%TO.P,U1,50,VBAT*%
%TO.N,unconnected-(U1-VBAT-Pad50)*%
X115000000Y-85460000D03*
%TO.P,U1,51,3V3*%
%TO.N,unconnected-(U1-3V3-Pad51)*%
X115000000Y-82920000D03*
%TO.P,U1,52,GND*%
%TO.N,unconnected-(U1-GND-Pad52)*%
X115000000Y-80380000D03*
%TO.P,U1,53,PROGRAM*%
%TO.N,unconnected-(U1-PROGRAM-Pad53)*%
X115000000Y-77840000D03*
%TO.P,U1,54,ON_OFF*%
%TO.N,unconnected-(U1-ON_OFF-Pad54)*%
X115000000Y-75300000D03*
D18*
%TO.P,U1,55,5V*%
%TO.N,unconnected-(U1-5V-Pad55)*%
X75579200Y-84949200D03*
D19*
%TO.P,U1,56,D-*%
%TO.N,unconnected-(U1-D--Pad56)*%
X78119200Y-84949200D03*
%TO.P,U1,57,D+*%
%TO.N,unconnected-(U1-D+-Pad57)*%
X80659200Y-84949200D03*
%TO.P,U1,58,GND*%
%TO.N,unconnected-(U1-GND-Pad58)*%
X83199200Y-84949200D03*
%TO.P,U1,59,GND*%
%TO.N,unconnected-(U1-GND-Pad59)*%
X85739200Y-84949200D03*
D20*
%TO.P,U1,60,R+*%
%TO.N,unconnected-(U1-R+-Pad60)*%
X82250000Y-75198400D03*
D21*
%TO.P,U1,61,LED*%
%TO.N,unconnected-(U1-LED-Pad61)*%
X82250000Y-77198400D03*
%TO.P,U1,62,T-*%
%TO.N,unconnected-(U1-T--Pad62)*%
X82250000Y-79198400D03*
%TO.P,U1,63,T+*%
%TO.N,unconnected-(U1-T+-Pad63)*%
X84250000Y-79198400D03*
%TO.P,U1,64,GND*%
%TO.N,unconnected-(U1-GND-Pad64)*%
X84250000Y-77198400D03*
%TO.P,U1,65,R-*%
%TO.N,unconnected-(U1-R--Pad65)*%
X84250000Y-75198400D03*
%TO.P,U1,66,D-*%
%TO.N,unconnected-(U1-D--Pad66)*%
X70010000Y-79110000D03*
%TO.P,U1,67,D+*%
%TO.N,unconnected-(U1-D+-Pad67)*%
X70010000Y-81650000D03*
%TD*%
D22*
%TO.P,R2,1*%
%TO.N,+10V*%
X141000000Y-95190000D03*
D23*
%TO.P,R2,2*%
%TO.N,VSTEP*%
X141000000Y-102810000D03*
%TD*%
D24*
%TO.P,SW1,1,1*%
%TO.N,Net-(F1-Pad2)*%
X75200000Y-129000000D03*
D25*
%TO.P,SW1,1A,1A*%
%TO.N,+10V*%
X84000000Y-129000000D03*
D24*
%TO.P,SW1,2,2*%
%TO.N,Net-(F1-Pad2)*%
X75200000Y-121000000D03*
%TO.P,SW1,2A,2A*%
%TO.N,+10V*%
X84000000Y-121000000D03*
%TD*%
D16*
%TO.P,J7,1,Pin_1*%
%TO.N,Signal*%
X105000000Y-132000000D03*
D17*
%TO.P,J7,2,Pin_2*%
%TO.N,+10V*%
X107000000Y-132000000D03*
%TO.P,J7,3,Pin_3*%
%TO.N,GND*%
X109000000Y-132000000D03*
%TD*%
D14*
%TO.P,J13,1,Pin_1*%
%TO.N,Net-(J13-Pin_1)*%
X69000000Y-57000000D03*
D15*
%TO.P,J13,2,Pin_2*%
X69000000Y-59000000D03*
%TO.P,J13,3,Pin_3*%
X69000000Y-61000000D03*
%TO.P,J13,4,Pin_4*%
X69000000Y-63000000D03*
%TD*%
D26*
%TO.P,J12,1,Pin_1*%
%TO.N,Net-(J12-Pin_1)*%
X76960000Y-69000000D03*
D27*
%TO.P,J12,2,Pin_2*%
%TO.N,Net-(J12-Pin_2)*%
X79500000Y-69000000D03*
%TO.P,J12,3,Pin_3*%
%TO.N,Net-(J12-Pin_3)*%
X82040000Y-69000000D03*
%TO.P,J12,4,Pin_4*%
%TO.N,Net-(J12-Pin_4)*%
X84580000Y-69000000D03*
%TO.P,J12,5,Pin_5*%
%TO.N,Net-(J12-Pin_5)*%
X87120000Y-69000000D03*
%TO.P,J12,6,Pin_6*%
%TO.N,Net-(J12-Pin_6)*%
X89660000Y-69000000D03*
%TO.P,J12,7,Pin_7*%
%TO.N,Net-(J12-Pin_7)*%
X92200000Y-69000000D03*
%TO.P,J12,8,Pin_8*%
%TO.N,Net-(J12-Pin_8)*%
X94740000Y-69000000D03*
%TO.P,J12,9,Pin_9*%
%TO.N,Net-(J12-Pin_9)*%
X97280000Y-69000000D03*
%TO.P,J12,10,Pin_10*%
%TO.N,Net-(J12-Pin_10)*%
X99820000Y-69000000D03*
%TO.P,J12,11,Pin_11*%
%TO.N,Net-(J12-Pin_11)*%
X102360000Y-69000000D03*
%TO.P,J12,12,Pin_12*%
%TO.N,Net-(J12-Pin_12)*%
X104900000Y-69000000D03*
%TO.P,J12,13,Pin_13*%
%TO.N,Net-(J12-Pin_13)*%
X107440000Y-69000000D03*
%TO.P,J12,14,Pin_14*%
%TO.N,Net-(J12-Pin_14)*%
X109980000Y-69000000D03*
%TO.P,J12,15,Pin_15*%
%TO.N,Net-(J12-Pin_15)*%
X112520000Y-69000000D03*
%TO.P,J12,16,Pin_16*%
%TO.N,Net-(J12-Pin_16)*%
X115060000Y-69000000D03*
%TO.P,J12,17,Pin_17*%
%TO.N,Net-(J12-Pin_17)*%
X117600000Y-69000000D03*
%TO.P,J12,18,Pin_18*%
%TO.N,Net-(J12-Pin_18)*%
X120140000Y-69000000D03*
%TO.P,J12,19,Pin_19*%
%TO.N,Net-(J12-Pin_19)*%
X122680000Y-69000000D03*
%TO.P,J12,20,Pin_20*%
%TO.N,Net-(J12-Pin_20)*%
X125220000Y-69000000D03*
%TO.P,J12,21,Pin_21*%
%TO.N,Net-(J12-Pin_21)*%
X127760000Y-69000000D03*
%TD*%
D28*
%TO.P,F1,1*%
%TO.N,Net-(J1-Pin_1)*%
X58000000Y-119000000D03*
%TO.P,F1,2*%
%TO.N,Net-(F1-Pad2)*%
X58000000Y-128200000D03*
%TD*%
D14*
%TO.P,J9,1,Pin_1*%
%TO.N,Net-(A1-2B)*%
X139000000Y-109000000D03*
D15*
%TO.P,J9,2,Pin_2*%
%TO.N,Net-(A1-2A)*%
X139000000Y-111000000D03*
%TO.P,J9,3,Pin_3*%
%TO.N,Net-(A1-1A)*%
X139000000Y-113000000D03*
%TO.P,J9,4,Pin_4*%
%TO.N,Net-(A1-1B)*%
X139000000Y-115000000D03*
%TD*%
D16*
%TO.P,J4,1,Pin_1*%
%TO.N,Signal*%
X93000000Y-132000000D03*
D17*
%TO.P,J4,2,Pin_2*%
%TO.N,+10V*%
X95000000Y-132000000D03*
%TO.P,J4,3,Pin_3*%
%TO.N,GND*%
X97000000Y-132000000D03*
%TD*%
D12*
%TO.P,C1,1*%
%TO.N,+10V*%
X75000000Y-108000000D03*
D13*
%TO.P,C1,2*%
%TO.N,GND*%
X77000000Y-108000000D03*
%TD*%
D14*
%TO.P,J11,1,Pin_1*%
%TO.N,Net-(J11-Pin_1)*%
X115000000Y-105000000D03*
D15*
%TO.P,J11,2,Pin_2*%
%TO.N,Net-(J11-Pin_2)*%
X115000000Y-107000000D03*
%TD*%
D16*
%TO.P,J3,1,Pin_1*%
%TO.N,Signal*%
X93000000Y-122000000D03*
D17*
%TO.P,J3,2,Pin_2*%
%TO.N,+10V*%
X95000000Y-122000000D03*
%TO.P,J3,3,Pin_3*%
%TO.N,GND*%
X97000000Y-122000000D03*
%TD*%
D22*
%TO.P,R1,1*%
%TO.N,Net-(D1-K)*%
X82000000Y-142000000D03*
D23*
%TO.P,R1,2*%
%TO.N,GND*%
X89620000Y-142000000D03*
%TD*%
D26*
%TO.P,J8,1,Pin_1*%
%TO.N,Net-(J8-Pin_1)*%
X127760000Y-91000000D03*
D27*
%TO.P,J8,2,Pin_2*%
%TO.N,Net-(J8-Pin_2)*%
X125220000Y-91000000D03*
%TO.P,J8,3,Pin_3*%
%TO.N,Net-(J8-Pin_3)*%
X122680000Y-91000000D03*
%TO.P,J8,4,Pin_4*%
%TO.N,Net-(J8-Pin_4)*%
X120140000Y-91000000D03*
%TO.P,J8,5,Pin_5*%
%TO.N,Net-(J8-Pin_5)*%
X117600000Y-91000000D03*
%TO.P,J8,6,Pin_6*%
%TO.N,Net-(J8-Pin_6)*%
X115060000Y-91000000D03*
%TO.P,J8,7,Pin_7*%
%TO.N,Net-(J8-Pin_7)*%
X112520000Y-91000000D03*
%TO.P,J8,8,Pin_8*%
%TO.N,Net-(J8-Pin_8)*%
X109980000Y-91000000D03*
%TO.P,J8,9,Pin_9*%
%TO.N,Net-(J8-Pin_9)*%
X107440000Y-91000000D03*
%TO.P,J8,10,Pin_10*%
%TO.N,Net-(J8-Pin_10)*%
X104900000Y-91000000D03*
%TO.P,J8,11,Pin_11*%
%TO.N,Net-(J8-Pin_11)*%
X102360000Y-91000000D03*
%TO.P,J8,12,Pin_12*%
%TO.N,Net-(J8-Pin_12)*%
X99820000Y-91000000D03*
%TO.P,J8,13,Pin_13*%
%TO.N,Net-(J8-Pin_13)*%
X97280000Y-91000000D03*
%TO.P,J8,14,Pin_14*%
%TO.N,Net-(J8-Pin_14)*%
X94740000Y-91000000D03*
%TD*%
D16*
%TO.P,J6,1,Pin_1*%
%TO.N,Signal*%
X105000000Y-122000000D03*
D17*
%TO.P,J6,2,Pin_2*%
%TO.N,+10V*%
X107000000Y-122000000D03*
%TO.P,J6,3,Pin_3*%
%TO.N,GND*%
X109000000Y-122000000D03*
%TD*%
D18*
%TO.P,A1,1,GND*%
%TO.N,GND*%
X134700000Y-120620000D03*
D29*
%TO.P,A1,2,VDD*%
%TO.N,Net-(A1-VDD)*%
X134700000Y-118080000D03*
%TO.P,A1,3,1B*%
%TO.N,Net-(A1-1B)*%
X134700000Y-115540000D03*
%TO.P,A1,4,1A*%
%TO.N,Net-(A1-1A)*%
X134700000Y-113000000D03*
%TO.P,A1,5,2A*%
%TO.N,Net-(A1-2A)*%
X134700000Y-110460000D03*
%TO.P,A1,6,2B*%
%TO.N,Net-(A1-2B)*%
X134700000Y-107920000D03*
%TO.P,A1,7,GND*%
%TO.N,GND*%
X134700000Y-105380000D03*
%TO.P,A1,8,VMOT*%
%TO.N,VSTEP*%
X134700000Y-102840000D03*
%TO.P,A1,9,~{ENABLE}*%
%TO.N,unconnected-(A1-~{ENABLE}-Pad9)*%
X122000000Y-102840000D03*
%TO.P,A1,10,MS1*%
%TO.N,Net-(A1-MS1)*%
X122000000Y-105380000D03*
%TO.P,A1,11,MS2*%
%TO.N,Net-(A1-MS2)*%
X122000000Y-107920000D03*
%TO.P,A1,12,MS3*%
%TO.N,unconnected-(A1-MS3-Pad12)*%
X122000000Y-110460000D03*
%TO.P,A1,13,~{RESET}*%
%TO.N,unconnected-(A1-~{RESET}-Pad13)*%
X122000000Y-113000000D03*
%TO.P,A1,14,~{SLEEP}*%
%TO.N,unconnected-(A1-~{SLEEP}-Pad14)*%
X122000000Y-115540000D03*
%TO.P,A1,15,STEP*%
%TO.N,STEP*%
X122000000Y-118080000D03*
%TO.P,A1,16,DIR*%
%TO.N,DIR*%
X122000000Y-120620000D03*
%TD*%
D14*
%TO.P,J10,1,Pin_1*%
%TO.N,Net-(A1-MS1)*%
X118000000Y-105000000D03*
D15*
%TO.P,J10,2,Pin_2*%
%TO.N,Net-(A1-MS2)*%
X118000000Y-107000000D03*
%TD*%
D14*
%TO.P,J15,1,Pin_1*%
%TO.N,Net-(J15-Pin_1)*%
X77000000Y-57000000D03*
D15*
%TO.P,J15,2,Pin_2*%
X77000000Y-59000000D03*
%TO.P,J15,3,Pin_3*%
X77000000Y-61000000D03*
%TO.P,J15,4,Pin_4*%
X77000000Y-63000000D03*
%TD*%
D30*
%TO.P,D1,1,K*%
%TO.N,Net-(D1-K)*%
X76000000Y-143000000D03*
D31*
%TO.P,D1,2,A*%
%TO.N,+10V*%
X76000000Y-140460000D03*
%TD*%
D16*
%TO.P,J5,1,Pin_1*%
%TO.N,Signal*%
X105000000Y-112000000D03*
D17*
%TO.P,J5,2,Pin_2*%
%TO.N,+10V*%
X107000000Y-112000000D03*
%TO.P,J5,3,Pin_3*%
%TO.N,GND*%
X109000000Y-112000000D03*
%TD*%
D32*
%TO.N,Net-(D1-K)*%
X81000000Y-143000000D02*
X82000000Y-142000000D01*
X76000000Y-143000000D02*
X81000000Y-143000000D01*
D33*
%TO.N,GND*%
X80568528Y-104720000D02*
X77000000Y-104720000D01*
X131320000Y-124000000D02*
X134700000Y-120620000D01*
X101995000Y-104720000D02*
X89000000Y-104720000D01*
X97000000Y-111725000D02*
X89995000Y-104720000D01*
X66000000Y-108000000D02*
X69280000Y-104720000D01*
X77000000Y-108000000D02*
X77000000Y-104720000D01*
X77000000Y-104720000D02*
X69280000Y-104720000D01*
X97000000Y-112000000D02*
X97000000Y-132000000D01*
X83000000Y-108000000D02*
X83000000Y-107151472D01*
X109000000Y-122000000D02*
X111000000Y-124000000D01*
X109000000Y-112000000D02*
X109000000Y-111725000D01*
X97000000Y-112000000D02*
X97000000Y-111725000D01*
X89000000Y-104720000D02*
X80568528Y-104720000D01*
X109000000Y-132000000D02*
X109000000Y-112000000D01*
X83000000Y-107151472D02*
X80568528Y-104720000D01*
X69280000Y-104720000D02*
X69280000Y-88000000D01*
X111000000Y-124000000D02*
X131320000Y-124000000D01*
X89995000Y-104720000D02*
X89000000Y-104720000D01*
X109000000Y-111725000D02*
X101995000Y-104720000D01*
D32*
%TO.N,Signal*%
X93000000Y-112000000D02*
X93000000Y-132000000D01*
X105000000Y-132000000D02*
X105000000Y-112000000D01*
D33*
%TO.N,Net-(J1-Pin_1)*%
X66000000Y-103000000D02*
X58000000Y-111000000D01*
X58000000Y-111000000D02*
X58000000Y-119000000D01*
D32*
%TO.N,Net-(J8-Pin_12)*%
X99760000Y-88000000D02*
X99760000Y-90940000D01*
X99760000Y-90940000D02*
X99820000Y-91000000D01*
%TO.N,Net-(J8-Pin_8)*%
X109920000Y-90940000D02*
X109980000Y-91000000D01*
X109920000Y-88000000D02*
X109920000Y-90940000D01*
%TO.N,Net-(J8-Pin_3)*%
X122620000Y-90940000D02*
X122680000Y-91000000D01*
X122620000Y-88000000D02*
X122620000Y-90940000D01*
%TO.N,Net-(J8-Pin_2)*%
X125160000Y-90940000D02*
X125220000Y-91000000D01*
X125160000Y-88000000D02*
X125160000Y-90940000D01*
%TO.N,Net-(J8-Pin_10)*%
X104840000Y-88000000D02*
X104840000Y-90940000D01*
X104840000Y-90940000D02*
X104900000Y-91000000D01*
%TO.N,Net-(J8-Pin_4)*%
X120080000Y-90940000D02*
X120140000Y-91000000D01*
X120080000Y-88000000D02*
X120080000Y-90940000D01*
%TO.N,Net-(J8-Pin_7)*%
X112460000Y-90940000D02*
X112520000Y-91000000D01*
X112460000Y-88000000D02*
X112460000Y-90940000D01*
%TO.N,Net-(J8-Pin_13)*%
X97220000Y-88000000D02*
X97220000Y-90940000D01*
X97220000Y-90940000D02*
X97280000Y-91000000D01*
%TO.N,Net-(J8-Pin_6)*%
X115000000Y-90940000D02*
X115060000Y-91000000D01*
X115000000Y-88000000D02*
X115000000Y-90940000D01*
%TO.N,Net-(J8-Pin_1)*%
X127700000Y-90940000D02*
X127760000Y-91000000D01*
X127700000Y-88000000D02*
X127700000Y-90940000D01*
%TO.N,Net-(J8-Pin_11)*%
X102300000Y-90940000D02*
X102360000Y-91000000D01*
X102300000Y-88000000D02*
X102300000Y-90940000D01*
%TO.N,Net-(J8-Pin_14)*%
X94680000Y-88000000D02*
X94680000Y-90940000D01*
X94680000Y-90940000D02*
X94740000Y-91000000D01*
%TO.N,Net-(J8-Pin_9)*%
X107380000Y-88000000D02*
X107380000Y-90940000D01*
X107380000Y-90940000D02*
X107440000Y-91000000D01*
%TO.N,Net-(J8-Pin_5)*%
X117600000Y-91000000D02*
X117600000Y-88060000D01*
X117600000Y-88060000D02*
X117540000Y-88000000D01*
%TO.N,Net-(J12-Pin_1)*%
X76900000Y-71020000D02*
X76900000Y-72760000D01*
X76960000Y-69000000D02*
X76960000Y-70960000D01*
X76960000Y-70960000D02*
X76900000Y-71020000D01*
%TO.N,Net-(J12-Pin_10)*%
X99820000Y-69000000D02*
X99820000Y-72700000D01*
X99820000Y-72700000D02*
X99760000Y-72760000D01*
%TO.N,Net-(J12-Pin_14)*%
X109980000Y-69000000D02*
X109980000Y-72700000D01*
X109980000Y-72700000D02*
X109920000Y-72760000D01*
%TO.N,Net-(J12-Pin_11)*%
X102360000Y-72700000D02*
X102300000Y-72760000D01*
X102360000Y-69000000D02*
X102360000Y-72700000D01*
%TO.N,Net-(J12-Pin_7)*%
X92200000Y-72700000D02*
X92140000Y-72760000D01*
X92200000Y-69000000D02*
X92200000Y-72700000D01*
%TO.N,Net-(J12-Pin_20)*%
X125220000Y-72700000D02*
X125160000Y-72760000D01*
X125220000Y-69000000D02*
X125220000Y-72700000D01*
%TO.N,Net-(J12-Pin_6)*%
X89660000Y-69000000D02*
X89660000Y-72700000D01*
X89660000Y-72700000D02*
X89600000Y-72760000D01*
%TO.N,Net-(J12-Pin_2)*%
X79500000Y-72700000D02*
X79440000Y-72760000D01*
X79500000Y-69000000D02*
X79500000Y-72700000D01*
%TO.N,Net-(J12-Pin_5)*%
X87120000Y-72700000D02*
X87060000Y-72760000D01*
X87120000Y-69000000D02*
X87120000Y-72700000D01*
%TO.N,Net-(J12-Pin_19)*%
X122680000Y-69000000D02*
X122680000Y-72700000D01*
X122680000Y-72700000D02*
X122620000Y-72760000D01*
%TO.N,Net-(J12-Pin_15)*%
X112520000Y-69000000D02*
X112520000Y-72700000D01*
X112520000Y-72700000D02*
X112460000Y-72760000D01*
%TO.N,Net-(J12-Pin_4)*%
X84580000Y-69000000D02*
X84580000Y-72700000D01*
X84580000Y-72700000D02*
X84520000Y-72760000D01*
%TO.N,Net-(J12-Pin_12)*%
X104900000Y-69000000D02*
X104900000Y-72700000D01*
X104900000Y-72700000D02*
X104840000Y-72760000D01*
%TO.N,Net-(J12-Pin_13)*%
X107440000Y-72700000D02*
X107380000Y-72760000D01*
X107440000Y-69000000D02*
X107440000Y-72700000D01*
%TO.N,Net-(J12-Pin_17)*%
X117600000Y-69000000D02*
X117600000Y-72700000D01*
X117600000Y-72700000D02*
X117540000Y-72760000D01*
%TO.N,Net-(J12-Pin_18)*%
X120140000Y-72700000D02*
X120080000Y-72760000D01*
X120140000Y-69000000D02*
X120140000Y-72700000D01*
%TO.N,Net-(J12-Pin_8)*%
X94740000Y-69000000D02*
X94740000Y-72700000D01*
X94740000Y-72700000D02*
X94680000Y-72760000D01*
%TO.N,Net-(J12-Pin_21)*%
X127760000Y-72700000D02*
X127700000Y-72760000D01*
X127760000Y-69000000D02*
X127760000Y-72700000D01*
%TO.N,Net-(J12-Pin_3)*%
X82040000Y-69960000D02*
X81980000Y-70020000D01*
X82040000Y-69000000D02*
X82040000Y-69960000D01*
X81980000Y-70020000D02*
X81980000Y-72760000D01*
%TO.N,Net-(J12-Pin_16)*%
X115060000Y-72700000D02*
X115000000Y-72760000D01*
X115060000Y-69000000D02*
X115060000Y-72700000D01*
%TO.N,Net-(J12-Pin_9)*%
X97280000Y-69000000D02*
X97280000Y-72700000D01*
X97280000Y-72700000D02*
X97220000Y-72760000D01*
%TO.N,Net-(A1-VDD)*%
X129770000Y-81770000D02*
X131000000Y-83000000D01*
X131000000Y-114380000D02*
X134700000Y-118080000D01*
X78290000Y-81770000D02*
X129770000Y-81770000D01*
X131000000Y-83000000D02*
X131000000Y-114380000D01*
X71820000Y-75300000D02*
X78290000Y-81770000D01*
%TO.N,Net-(A1-2A)*%
X138460000Y-110460000D02*
X139000000Y-111000000D01*
X134700000Y-110460000D02*
X138460000Y-110460000D01*
%TO.N,Net-(A1-2B)*%
X134700000Y-107920000D02*
X137920000Y-107920000D01*
X137920000Y-107920000D02*
X139000000Y-109000000D01*
%TO.N,Net-(A1-1A)*%
X134700000Y-113000000D02*
X139000000Y-113000000D01*
%TO.N,Net-(A1-MS2)*%
X121080000Y-107000000D02*
X122000000Y-107920000D01*
X118000000Y-107000000D02*
X121080000Y-107000000D01*
%TO.N,Net-(A1-MS1)*%
X119380000Y-105380000D02*
X122000000Y-105380000D01*
X118000000Y-105000000D02*
X119000000Y-105000000D01*
X119000000Y-105000000D02*
X119380000Y-105380000D01*
D33*
%TO.N,VSTEP*%
X134700000Y-102840000D02*
X140970000Y-102840000D01*
X140970000Y-102840000D02*
X141000000Y-102810000D01*
D32*
%TO.N,Net-(A1-1B)*%
X138460000Y-115540000D02*
X139000000Y-115000000D01*
X134700000Y-115540000D02*
X138460000Y-115540000D01*
%TO.N,Net-(J13-Pin_1)*%
X69280000Y-72760000D02*
X69280000Y-63280000D01*
X69000000Y-57000000D02*
X69000000Y-63000000D01*
X69280000Y-63280000D02*
X69000000Y-63000000D01*
D33*
%TO.N,+10V*%
X95000000Y-138000000D02*
X103000000Y-138000000D01*
X90000000Y-138000000D02*
X95000000Y-138000000D01*
D32*
X76000000Y-140460000D02*
X76000000Y-137000000D01*
D33*
X95000000Y-138000000D02*
X95000000Y-112000000D01*
X81000000Y-113000000D02*
X80000000Y-114000000D01*
X75000000Y-109000000D02*
X80000000Y-114000000D01*
X84000000Y-121000000D02*
X84000000Y-129000000D01*
X84000000Y-118000000D02*
X80000000Y-114000000D01*
X81000000Y-108000000D02*
X81000000Y-113000000D01*
X107000000Y-132000000D02*
X107000000Y-112000000D01*
X84000000Y-132000000D02*
X90000000Y-138000000D01*
X84000000Y-121000000D02*
X84000000Y-118000000D01*
X75000000Y-108000000D02*
X75000000Y-109000000D01*
X103000000Y-138000000D02*
X107000000Y-134000000D01*
X107000000Y-134000000D02*
X107000000Y-132000000D01*
D32*
X76000000Y-137000000D02*
X84000000Y-129000000D01*
D33*
X84000000Y-129000000D02*
X84000000Y-132000000D01*
D32*
%TO.N,Net-(J11-Pin_1)*%
X110000000Y-100000000D02*
X115000000Y-105000000D01*
X96520000Y-100000000D02*
X110000000Y-100000000D01*
X84520000Y-88000000D02*
X96520000Y-100000000D01*
%TO.N,Net-(J11-Pin_2)*%
X94980000Y-101000000D02*
X107000000Y-101000000D01*
X107000000Y-101000000D02*
X113000000Y-107000000D01*
X113000000Y-107000000D02*
X115000000Y-107000000D01*
X81980000Y-88000000D02*
X94980000Y-101000000D01*
%TO.N,STEP*%
X93440000Y-102000000D02*
X105920000Y-102000000D01*
X105920000Y-102000000D02*
X122000000Y-118080000D01*
X79440000Y-88000000D02*
X93440000Y-102000000D01*
%TO.N,DIR*%
X104380000Y-103000000D02*
X122000000Y-120620000D01*
X76900000Y-88000000D02*
X91900000Y-103000000D01*
X91900000Y-103000000D02*
X104380000Y-103000000D01*
%TO.N,Net-(J14-Pin_1)*%
X71820000Y-72760000D02*
X71820000Y-64180000D01*
X71820000Y-64180000D02*
X73000000Y-63000000D01*
X73000000Y-57000000D02*
X73000000Y-63000000D01*
%TO.N,Net-(J15-Pin_1)*%
X74360000Y-65640000D02*
X77000000Y-63000000D01*
X77000000Y-57000000D02*
X77000000Y-63000000D01*
X74360000Y-72760000D02*
X74360000Y-65640000D01*
D33*
%TO.N,Net-(F1-Pad2)*%
X68000000Y-128200000D02*
X75200000Y-121000000D01*
X74400000Y-128200000D02*
X75200000Y-129000000D01*
X58000000Y-128200000D02*
X68000000Y-128200000D01*
X58000000Y-128200000D02*
X74400000Y-128200000D01*
%TD*%
M02*
