M48
; DRILL file {KiCad 8.0.6} date 2024-11-20T07:08:11-0500
; FORMAT={-:-/ absolute / inch / decimal}
; #@! TF.CreationDate,2024-11-20T07:08:11-05:00
; #@! TF.GenerationSoftware,Kicad,Pcbnew,8.0.6
; #@! TF.FileFunction,Plated,1,2,PTH
FMAT,2
INCH
; #@! TA.AperFunction,Plated,PTH,ComponentDrill
T1C0.0236
; #@! TA.AperFunction,Plated,PTH,ComponentDrill
T2C0.0276
; #@! TA.AperFunction,Plated,PTH,ComponentDrill
T3C0.0295
; #@! TA.AperFunction,Plated,PTH,ComponentDrill
T4C0.0315
; #@! TA.AperFunction,Plated,PTH,ComponentDrill
T5C0.0354
; #@! TA.AperFunction,Plated,PTH,ComponentDrill
T6C0.0394
; #@! TA.AperFunction,Plated,PTH,ComponentDrill
T7C0.0433
; #@! TA.AperFunction,Plated,PTH,ComponentDrill
T8C0.0512
; #@! TA.AperFunction,Plated,PTH,ComponentDrill
T9C0.0728
; #@! TA.AperFunction,Plated,PTH,ComponentDrill
T10C0.0787
%
G90
G05
T1
X2.9528Y-4.252
X3.0315Y-4.252
X3.189Y-4.252
X3.2677Y-4.252
T2
X3.2283Y-5.5906
X3.5283Y-5.5906
X5.5512Y-3.7476
X5.5512Y-4.0476
T3
X3.6614Y-4.4094
X3.6614Y-4.8031
X3.6614Y-5.1969
X3.7402Y-4.4094
X3.7402Y-4.8031
X3.7402Y-5.1969
X3.8189Y-4.4094
X3.8189Y-4.8031
X3.8189Y-5.1969
X4.1339Y-4.4094
X4.1339Y-4.8031
X4.1339Y-5.1969
X4.2126Y-4.4094
X4.2126Y-4.8031
X4.2126Y-5.1969
X4.2913Y-4.4094
X4.2913Y-4.8031
X4.2913Y-5.1969
T4
X2.7165Y-2.2441
X2.7165Y-2.3228
X2.7165Y-2.4016
X2.7165Y-2.4803
X2.7563Y-3.1146
X2.7563Y-3.2146
X2.874Y-2.2441
X2.874Y-2.3228
X2.874Y-2.4016
X2.874Y-2.4803
X3.0315Y-2.2441
X3.0315Y-2.3228
X3.0315Y-2.4016
X3.0315Y-2.4803
X3.2382Y-2.9606
X3.2382Y-3.0393
X3.2382Y-3.118
X3.3169Y-2.9606
X3.3169Y-3.0393
X3.3169Y-3.118
X4.5276Y-4.1339
X4.5276Y-4.2126
X4.6457Y-4.1339
X4.6457Y-4.2126
X4.8031Y-4.0488
X4.8031Y-4.1488
X4.8031Y-4.2488
X4.8031Y-4.3488
X4.8031Y-4.4488
X4.8031Y-4.5488
X4.8031Y-4.6488
X4.8031Y-4.7488
X5.3031Y-4.0488
X5.3031Y-4.1488
X5.3031Y-4.2488
X5.3031Y-4.3488
X5.3031Y-4.4488
X5.3031Y-4.5488
X5.3031Y-4.6488
X5.3031Y-4.7488
X5.4724Y-4.2913
X5.4724Y-4.3701
X5.4724Y-4.4488
X5.4724Y-4.5276
T5
X2.9921Y-5.5299
X2.9921Y-5.6299
T6
X3.0299Y-2.7165
X3.1299Y-2.7165
X3.2299Y-2.7165
X3.3299Y-2.7165
X3.4299Y-2.7165
X3.5299Y-2.7165
X3.6299Y-2.7165
X3.7299Y-2.7165
X3.7299Y-3.5827
X3.8299Y-2.7165
X3.8299Y-3.5827
X3.9299Y-2.7165
X3.9299Y-3.5827
X4.0299Y-2.7165
X4.0299Y-3.5827
X4.1299Y-2.7165
X4.1299Y-3.5827
X4.2299Y-2.7165
X4.2299Y-3.5827
X4.3299Y-2.7165
X4.3299Y-3.5827
X4.4299Y-2.7165
X4.4299Y-3.5827
X4.5299Y-2.7165
X4.5299Y-3.5827
X4.6299Y-2.7165
X4.6299Y-3.5827
X4.7299Y-2.7165
X4.7299Y-3.5827
X4.8299Y-2.7165
X4.8299Y-3.5827
X4.9299Y-2.7165
X4.9299Y-3.5827
X5.0299Y-2.7165
X5.0299Y-3.5827
T7
X2.7276Y-2.8646
X2.7276Y-3.4646
X2.8276Y-2.8646
X2.8276Y-2.9646
X2.8276Y-3.4646
X2.9276Y-2.8646
X2.9276Y-3.4646
X2.9756Y-3.3445
X3.0276Y-2.8646
X3.0276Y-3.4646
X3.0756Y-3.3445
X3.1276Y-2.8646
X3.1276Y-3.4646
X3.1756Y-3.3445
X3.2276Y-2.8646
X3.2276Y-3.4646
X3.2756Y-3.3445
X3.3276Y-2.8646
X3.3276Y-3.4646
X3.3756Y-3.3445
X3.4276Y-2.8646
X3.4276Y-3.4646
X3.5276Y-2.8646
X3.5276Y-3.4646
X3.6276Y-2.8646
X3.6276Y-3.4646
X3.7276Y-2.8646
X3.7276Y-3.4646
X3.8276Y-2.8646
X3.8276Y-3.4646
X3.9276Y-2.8646
X3.9276Y-3.4646
X4.0276Y-2.8646
X4.0276Y-3.4646
X4.1276Y-2.8646
X4.1276Y-3.4646
X4.2276Y-2.8646
X4.2276Y-3.4646
X4.3276Y-2.8646
X4.3276Y-3.4646
X4.4276Y-2.8646
X4.4276Y-3.4646
X4.5276Y-2.8646
X4.5276Y-2.9646
X4.5276Y-3.0646
X4.5276Y-3.1646
X4.5276Y-3.2646
X4.5276Y-3.3646
X4.5276Y-3.4646
X4.6276Y-2.8646
X4.6276Y-3.4646
X4.7276Y-2.8646
X4.7276Y-3.4646
X4.8276Y-2.8646
X4.8276Y-3.4646
X4.9276Y-2.8646
X4.9276Y-3.4646
X5.0276Y-2.8646
X5.0276Y-3.4646
T8
X2.5984Y-4.0551
X2.5984Y-4.252
T9
X2.9606Y-4.7638
X2.9606Y-5.0787
X3.3071Y-4.7638
X3.3071Y-5.0787
T10
X2.2835Y-4.685
X2.2835Y-5.0472
M30
